<svg width="40" height="40" viewBox="0 0 40 40" fill="none" xmlns="http://www.w3.org/2000/svg">
<circle cx="20" cy="20" r="20" fill="#D5F6EB"/>
<g clip-path="url(#clip0_4159_25499)">
<path d="M30.77 17.0876L25.2699 11.5875C24.963 11.2807 24.4655 11.2808 24.1587 11.5876C24.0114 11.735 23.9287 11.9347 23.9287 12.143V14.5002H18.4285C17.9946 14.5002 17.6428 14.852 17.6428 15.2859C17.6428 15.7199 17.9946 16.0717 18.4285 16.0717H24.7144C25.1484 16.0717 25.5001 15.7199 25.5001 15.2859V14.0397L29.1035 17.6431L25.5001 21.2464V20.0003C25.5001 19.5663 25.1484 19.2145 24.7144 19.2145H16.0714V16.8573C16.0713 16.4234 15.7194 16.0717 15.2855 16.0718C15.0772 16.0718 14.8774 16.1545 14.7301 16.3018L9.23007 21.8019C8.92331 22.1088 8.92331 22.6061 9.23007 22.9129L14.7302 28.413C14.8775 28.5604 15.0773 28.6432 15.2857 28.6433C15.3889 28.6436 15.4913 28.6233 15.5866 28.5836C15.8801 28.4618 16.0715 28.1753 16.0714 27.8575V25.5004H21.5715C22.0054 25.5004 22.3572 25.1486 22.3572 24.7146C22.3572 24.2807 22.0054 23.9289 21.5715 23.9289H15.2857C14.8517 23.9289 14.4999 24.2807 14.4999 24.7146V25.9608L10.8966 22.3574L14.4999 18.7541V20.0003C14.4999 20.4342 14.8517 20.786 15.2857 20.786H23.9287V23.1432C23.9287 23.5771 24.2806 23.9288 24.7145 23.9287C24.9228 23.9287 25.1226 23.846 25.2699 23.6987L30.77 18.1986C31.0767 17.8917 31.0767 17.3944 30.77 17.0876Z" fill="#45C29A"/>
</g>
<defs>
<clipPath id="clip0_4159_25499">
<rect width="22" height="22" fill="white" transform="translate(9 9)"/>
</clipPath>
</defs>
</svg>
