<svg width="40" height="40" viewBox="0 0 40 40" fill="none" xmlns="http://www.w3.org/2000/svg">
<circle cx="20" cy="20" r="20" fill="#D5F6EB"/>
<path d="M28.1157 13.7176L23.5306 9.13428C23.4447 9.04834 23.3283 9 23.2065 9H13.5833C12.5722 9 11.75 9.82221 11.75 10.8333V29.1667C11.75 30.1778 12.5722 31 13.5833 31H26.4167C27.4278 31 28.25 30.1778 28.25 29.1667V14.0417C28.25 13.9199 28.2017 13.8036 28.1157 13.7176ZM27.3333 29.1667C27.3333 29.672 26.922 30.0833 26.4167 30.0833H13.5833C13.078 30.0833 12.6667 29.672 12.6667 29.1667V10.8333C12.6667 10.328 13.078 9.9167 13.5833 9.9167H23.0168L27.3333 14.2314V29.1667Z" fill="#45C29A"/>
<path d="M14.5 18.625V26.875C14.5 27.6332 15.1168 28.25 15.875 28.25H24.125C24.8832 28.25 25.5 27.6332 25.5 26.875V18.625C25.5 17.8668 24.8832 17.25 24.125 17.25H15.875C15.1168 17.25 14.5 17.8668 14.5 18.625ZM17.7083 27.3333H15.875C15.6221 27.3333 15.4167 27.1279 15.4167 26.875V25.0417H17.7083V27.3333H17.7083ZM21.375 27.3333H18.625V25.0417H21.375V27.3333ZM24.5833 26.875C24.5833 27.1279 24.3779 27.3333 24.125 27.3333H22.2917V24.5833C22.2917 24.33 22.0866 24.125 21.8333 24.125H15.4167V21.375H24.5833V26.875H24.5833ZM22.2917 18.1667H24.125C24.3779 18.1667 24.5833 18.3721 24.5833 18.625V20.4583H22.2917V18.1667H22.2917ZM18.625 18.1667H21.375V20.4583H18.625V18.1667ZM17.7083 20.4583H15.4167V18.625C15.4167 18.3721 15.6221 18.1667 15.875 18.1667H17.7084V20.4583H17.7083Z" fill="#45C29A"/>
</svg>
