<svg width="17" height="17" viewBox="0 0 17 17" fill="none" xmlns="http://www.w3.org/2000/svg">
<path d="M12.7274 3.32242C12.5395 3.32242 12.3559 3.37814 12.1996 3.48252C12.0434 3.58691 11.9216 3.73528 11.8497 3.90887C11.7778 4.08246 11.759 4.27347 11.7957 4.45775C11.8323 4.64204 11.9228 4.81131 12.0557 4.94417C12.1885 5.07703 12.3578 5.16751 12.5421 5.20416C12.7264 5.24082 12.9174 5.22201 13.091 5.1501C13.2646 5.0782 13.4129 4.95644 13.5173 4.80021C13.6217 4.64398 13.6774 4.46031 13.6774 4.27242C13.6774 4.02046 13.5773 3.77883 13.3992 3.60067C13.221 3.42251 12.9794 3.32242 12.7274 3.32242ZM16.3691 5.23825C16.3537 4.5814 16.2307 3.93153 16.0049 3.3145C15.8036 2.78657 15.4903 2.30851 15.0866 1.91325C14.6946 1.50746 14.2154 1.19614 13.6853 1.00284C13.0699 0.770213 12.4193 0.644377 11.7616 0.630752C10.9224 0.583252 10.6533 0.583252 8.49992 0.583252C6.34658 0.583252 6.07742 0.583252 5.23825 0.630752C4.5805 0.644377 3.9299 0.770213 3.3145 1.00284C2.78541 1.1981 2.30666 1.50915 1.91325 1.91325C1.50746 2.30527 1.19614 2.78443 1.00284 3.3145C0.770213 3.9299 0.644377 4.5805 0.630752 5.23825C0.583252 6.07742 0.583252 6.34658 0.583252 8.49992C0.583252 10.6533 0.583252 10.9224 0.630752 11.7616C0.644377 12.4193 0.770213 13.0699 1.00284 13.6853C1.19614 14.2154 1.50746 14.6946 1.91325 15.0866C2.30666 15.4907 2.78541 15.8017 3.3145 15.997C3.9299 16.2296 4.5805 16.3555 5.23825 16.3691C6.07742 16.4166 6.34658 16.4166 8.49992 16.4166C10.6533 16.4166 10.9224 16.4166 11.7616 16.3691C12.4193 16.3555 13.0699 16.2296 13.6853 15.997C14.2154 15.8037 14.6946 15.4924 15.0866 15.0866C15.4921 14.6928 15.8057 14.2143 16.0049 13.6853C16.2307 13.0683 16.3537 12.4184 16.3691 11.7616C16.3691 10.9224 16.4166 10.6533 16.4166 8.49992C16.4166 6.34658 16.4166 6.07742 16.3691 5.23825ZM14.9441 11.6666C14.9383 12.1691 14.8473 12.667 14.6749 13.1391C14.5485 13.4836 14.3455 13.7949 14.0812 14.0495C13.8244 14.3112 13.5137 14.5138 13.1708 14.6433C12.6987 14.8156 12.2008 14.9067 11.6983 14.9124C10.9066 14.952 10.6137 14.9599 8.53158 14.9599C6.4495 14.9599 6.15658 14.9599 5.36492 14.9124C4.84312 14.9222 4.32356 14.8418 3.82909 14.6749C3.50116 14.5388 3.20474 14.3367 2.95825 14.0812C2.69549 13.8268 2.495 13.5153 2.37242 13.1708C2.17914 12.6919 2.07194 12.1827 2.05575 11.6666C2.05575 10.8749 2.00825 10.582 2.00825 8.49992C2.00825 6.41783 2.00825 6.12492 2.05575 5.33325C2.0593 4.8195 2.15309 4.31037 2.33284 3.82909C2.47221 3.49493 2.68613 3.19706 2.95825 2.95825C3.19877 2.68605 3.49602 2.46987 3.82909 2.32492C4.31165 2.15079 4.82025 2.05977 5.33325 2.05575C6.12492 2.05575 6.41783 2.00825 8.49992 2.00825C10.582 2.00825 10.8749 2.00825 11.6666 2.05575C12.1691 2.06152 12.667 2.15253 13.1391 2.32492C13.4988 2.45843 13.8217 2.67551 14.0812 2.95825C14.3406 3.20143 14.5433 3.49875 14.6749 3.82909C14.8509 4.31116 14.9419 4.82008 14.9441 5.33325C14.9837 6.12492 14.9916 6.41783 14.9916 8.49992C14.9916 10.582 14.9837 10.8749 14.9441 11.6666ZM8.49992 4.43867C7.69702 4.44023 6.9126 4.67975 6.24577 5.12696C5.57894 5.57416 5.05963 6.20899 4.75346 6.95122C4.44729 7.69346 4.36799 8.50979 4.52559 9.29707C4.68319 10.0844 5.07061 10.8073 5.6389 11.3744C6.20719 11.9416 6.93084 12.3276 7.71843 12.4837C8.50602 12.6398 9.3222 12.5589 10.0638 12.2513C10.8055 11.9436 11.4393 11.4231 11.8852 10.7554C12.3311 10.0877 12.5691 9.30282 12.5691 8.49992C12.5701 7.96563 12.4655 7.4364 12.2613 6.94268C12.0571 6.44895 11.7573 6.00048 11.3791 5.62304C11.0009 5.24561 10.5519 4.94666 10.0578 4.7434C9.56364 4.54014 9.03421 4.43658 8.49992 4.43867ZM8.49992 11.1362C7.97852 11.1362 7.46883 10.9816 7.0353 10.6919C6.60177 10.4022 6.26387 9.99048 6.06434 9.50877C5.86481 9.02706 5.8126 8.49699 5.91432 7.98561C6.01604 7.47423 6.26712 7.00449 6.63581 6.63581C7.00449 6.26712 7.47423 6.01604 7.98561 5.91432C8.49699 5.8126 9.02706 5.86481 9.50877 6.06434C9.99048 6.26387 10.4022 6.60177 10.6919 7.0353C10.9816 7.46883 11.1362 7.97852 11.1362 8.49992C11.1362 8.84612 11.068 9.18892 10.9355 9.50877C10.803 9.82861 10.6088 10.1192 10.364 10.364C10.1192 10.6088 9.82861 10.803 9.50877 10.9355C9.18892 11.068 8.84612 11.1362 8.49992 11.1362Z" fill="black"/>
</svg>
