<svg width="40" height="40" viewBox="0 0 40 40" fill="none" xmlns="http://www.w3.org/2000/svg">
<circle cx="20" cy="20" r="20" fill="#D5F6EB"/>
<path d="M17.4479 19.5055C17.1963 19.2538 16.7882 19.2538 16.5364 19.5055C16.2847 19.7572 16.2847 20.1653 16.5364 20.417L18.5417 22.4222C18.6675 22.5481 18.8325 22.611 18.9974 22.611C19.1623 22.611 19.3273 22.5481 19.4531 22.4222L23.4635 18.4118C23.7152 18.1601 23.7152 17.752 23.4635 17.5003C23.2118 17.2486 22.8037 17.2486 22.552 17.5003L18.9973 21.0549L17.4479 19.5055Z" fill="#45C29A"/>
<path d="M28.1602 12.0078C26.3024 12.0078 24.6099 10.987 23.7432 9.34384C23.6317 9.13234 23.4122 9 23.1731 9H16.8269C16.5878 9 16.3683 9.13234 16.2568 9.34384C15.3901 10.987 13.6976 12.0078 11.8359 12.0078C11.48 12.0078 11.1914 12.2964 11.1914 12.6523V19.2159C11.1914 21.8545 12.0158 24.3741 13.5756 26.5023C15.1354 28.6306 17.2897 30.1755 19.8059 30.9701C19.8691 30.99 19.9345 31 20 31C20.0655 31 20.1309 30.99 20.1941 30.9701C22.7103 30.1755 24.8646 28.6306 26.4244 26.5023C27.9842 24.3741 28.8086 21.8545 28.8086 19.2159V12.6523C28.8086 12.2964 28.5161 12.0078 28.1602 12.0078ZM27.5195 19.2159C27.5195 23.986 24.5063 28.1645 20 29.6776C15.4937 28.1645 12.4805 23.986 12.4805 19.2159V13.2645C14.4312 13.0665 16.1757 11.9718 17.2018 10.2891H22.7983C23.8238 11.9709 25.5673 13.0654 27.5195 13.2642V19.2159Z" fill="#45C29A"/>
<path d="M22.303 11.8148C22.1806 11.665 21.9974 11.5781 21.8039 11.5781H18.196C18.0026 11.5781 17.8194 11.665 17.697 11.8148C16.7856 12.9299 15.5808 13.757 14.2128 14.2067C13.9483 14.2937 13.7695 14.5406 13.7695 14.819V19.2159C13.7695 23.1631 16.1177 26.6928 19.7519 28.2082C19.8313 28.2412 19.9157 28.2578 20 28.2578C20.0843 28.2578 20.1687 28.2412 20.2481 28.2082C23.8823 26.6928 26.2305 23.1631 26.2305 19.2159V14.8195C26.2305 14.5411 26.0518 14.2941 25.7873 14.2072C24.4192 13.7573 23.2144 12.9301 22.303 11.8148ZM24.9414 19.2159C24.9414 22.5505 23.0108 25.5414 20 26.9103C16.9892 25.5414 15.0586 22.5505 15.0586 19.2159V15.2725C16.3813 14.7584 17.5575 13.9356 18.4947 12.8672H21.5052C22.4425 13.9357 23.6185 14.7587 24.9414 15.2728V19.2159Z" fill="#45C29A"/>
</svg>
