<?xml version="1.0" standalone="no"?>
<!DOCTYPE svg PUBLIC "-//W3C//DTD SVG 20010904//EN"
 "http://www.w3.org/TR/2001/REC-SVG-20010904/DTD/svg10.dtd">
<svg version="1.0" xmlns="http://www.w3.org/2000/svg"
 width="824.000000pt" height="197.000000pt" viewBox="0 0 824.000000 197.000000"
 preserveAspectRatio="xMidYMid meet">
<metadata>
Created by potrace 1.16, written by Peter Selinger 2001-2019
</metadata>
<g transform="translate(0.000000,197.000000) scale(0.100000,-0.100000)"
fill="#000000" stroke="none">
<path d="M4582 1954 c-96 -49 -117 -195 -39 -274 40 -40 65 -50 131 -50 94 0
157 61 164 158 5 67 -8 100 -57 147 -28 26 -40 30 -99 33 -48 2 -76 -2 -100
-14z"/>
<path d="M10 1717 l0 -46 55 -6 c40 -5 60 -13 70 -28 13 -18 15 -96 15 -512 0
-269 -3 -500 -6 -513 -8 -27 -46 -49 -103 -58 l-41 -7 0 -46 0 -46 330 0 330
0 0 46 0 46 -50 7 c-30 4 -60 16 -77 30 l-28 24 -3 166 c-4 217 -2 218 137 20
57 -80 128 -170 158 -199 102 -99 248 -154 410 -155 50 0 51 1 78 46 28 48 24
63 -16 64 -26 0 -101 55 -161 116 -31 33 -104 122 -161 198 l-105 140 61 24
c166 67 253 160 279 301 29 156 -42 295 -186 362 -121 57 -164 62 -593 66
l-393 5 0 -45z m717 -78 c92 -46 142 -162 130 -303 -14 -162 -117 -264 -291
-284 l-66 -8 0 314 0 315 90 -5 c66 -4 101 -12 137 -29z"/>
<path d="M2740 1509 c-59 -30 -290 -109 -321 -109 -16 0 -19 -8 -19 -49 l0
-50 41 1 c29 0 47 -6 63 -21 20 -21 21 -30 24 -334 2 -171 0 -322 -3 -334 -6
-26 -44 -48 -98 -58 -36 -7 -37 -8 -37 -54 l0 -46 305 0 305 0 0 48 c0 41 -3
47 -20 47 -27 0 -92 27 -102 43 -4 7 -8 149 -8 317 l0 306 35 56 c44 70 86 98
150 98 39 0 51 -5 75 -30 44 -47 50 -100 50 -435 l0 -304 -26 -20 c-14 -11
-45 -23 -70 -27 l-44 -6 0 -47 0 -46 305 0 305 0 0 45 0 46 -47 13 c-87 23
-83 4 -83 348 0 263 2 308 16 336 46 88 99 127 174 127 34 0 47 -6 70 -30 44
-47 50 -100 50 -435 l0 -304 -26 -20 c-14 -11 -45 -23 -70 -27 l-44 -6 0 -47
0 -46 305 0 305 0 0 45 0 46 -47 13 c-87 23 -83 4 -83 345 0 166 -5 330 -11
366 -25 157 -98 237 -236 259 -136 22 -257 -20 -359 -124 -35 -36 -66 -65 -68
-65 -3 0 -9 15 -16 34 -17 52 -74 111 -131 136 -72 31 -200 31 -281 0 -68 -25
-152 -90 -192 -149 -16 -23 -31 -39 -33 -37 -3 2 1 39 8 80 11 71 10 78 -7 97
-34 37 -46 38 -104 8z"/>
<path d="M4745 1514 c-54 -32 -183 -78 -282 -100 l-83 -19 0 -47 0 -48 43 0
c32 0 49 -6 63 -21 18 -20 19 -43 22 -345 3 -315 2 -324 -18 -344 -11 -11 -40
-26 -65 -32 -45 -12 -45 -12 -45 -58 l0 -45 300 0 300 0 0 46 c0 46 -1 47 -37
54 -65 12 -91 31 -99 72 -8 43 3 784 12 825 5 23 0 33 -26 58 -18 16 -35 30
-39 29 -3 0 -24 -12 -46 -25z"/>
<path d="M1730 1519 c-79 -15 -190 -77 -256 -143 -103 -103 -144 -216 -144
-394 0 -232 96 -395 291 -491 191 -95 436 -74 563 47 37 36 96 118 96 134 0 4
-22 8 -48 8 -45 0 -50 -2 -79 -43 -64 -91 -211 -126 -313 -74 -86 43 -146 162
-157 310 l-6 77 272 0 c298 0 318 3 339 57 45 117 4 279 -97 386 -59 62 -123
100 -206 122 -64 16 -182 18 -255 4z m159 -100 c60 -21 94 -110 107 -287 l7
-92 -162 0 -161 0 0 63 c1 137 45 261 109 304 38 26 54 28 100 12z"/>
<path d="M5440 1524 c-14 -3 -52 -14 -85 -26 -157 -55 -252 -170 -263 -319 -8
-119 37 -230 116 -284 l35 -24 -40 -10 c-125 -34 -179 -152 -118 -257 42 -72
107 -96 407 -154 141 -26 270 -56 287 -64 53 -28 74 -91 50 -153 -54 -143
-356 -194 -459 -76 -30 34 -32 39 -24 82 4 25 8 67 8 93 1 41 -4 53 -31 80
-28 28 -40 32 -95 35 -114 7 -178 -55 -178 -170 0 -69 23 -120 75 -165 46 -41
73 -55 165 -83 67 -21 93 -24 240 -23 185 1 267 17 380 74 156 79 237 223 201
357 -33 122 -131 164 -535 232 -239 41 -277 54 -284 100 -5 32 18 35 140 15
97 -15 124 -16 207 -6 204 26 329 121 368 278 14 57 15 79 5 148 -7 44 -8 84
-4 88 5 5 27 5 50 0 86 -20 124 8 129 96 5 76 -19 116 -78 132 -78 21 -162
-10 -201 -75 -19 -34 -22 -35 -42 -20 -47 34 -110 69 -149 83 -41 14 -226 25
-277 16z m166 -113 c60 -37 89 -141 82 -301 -7 -161 -50 -233 -140 -233 -80 0
-127 81 -135 232 -11 197 42 321 137 321 14 0 39 -9 56 -19z"/>
<path d="M6632 1516 c-196 -50 -343 -194 -387 -377 -19 -83 -19 -238 0 -314
44 -166 194 -321 360 -371 242 -72 523 44 628 259 44 89 57 152 57 267 0 209
-68 345 -227 454 -38 25 -95 56 -128 67 -75 27 -227 34 -303 15z m136 -100
c64 -33 119 -136 149 -276 25 -120 25 -391 0 -473 -25 -81 -70 -129 -121 -129
-22 0 -50 8 -65 19 -137 101 -202 590 -105 791 36 74 85 98 142 68z"/>
<path d="M7655 1516 c-69 -17 -124 -47 -166 -93 -55 -57 -72 -98 -77 -184 -6
-100 14 -162 76 -230 54 -61 91 -85 237 -157 61 -30 131 -67 157 -83 147 -94
72 -277 -98 -239 -108 24 -209 94 -256 176 -29 52 -32 54 -72 54 l-42 0 13
-137 c6 -76 12 -146 13 -155 0 -15 9 -18 55 -18 47 0 55 3 55 19 0 39 22 39
125 -1 97 -37 103 -38 205 -35 121 4 182 26 265 99 67 59 95 123 95 218 0 157
-73 238 -319 357 -85 41 -166 83 -180 94 -108 85 -63 229 71 229 92 0 203 -75
260 -177 28 -50 32 -53 70 -53 l40 0 -6 68 c-3 37 -9 106 -12 155 l-6 87 -45
0 c-34 0 -49 -5 -62 -22 -17 -20 -21 -20 -62 -9 -24 7 -73 21 -109 31 -75 22
-154 24 -225 6z"/>
</g>
</svg>
