<svg width="40" height="40" viewBox="0 0 40 40" fill="none" xmlns="http://www.w3.org/2000/svg">
<circle cx="20" cy="20" r="20" fill="#D5F6EB"/>
<g clip-path="url(#clip0_4159_25514)">
<path d="M30.8714 18.207C31.1349 17.5162 30.9894 16.7037 30.4336 16.148L23.8521 9.56639C23.0981 8.81246 21.8714 8.81255 21.1175 9.56639L13.7183 16.9657H10.9336C9.86741 16.9657 9 17.8331 9 18.8993V29.0664C9 30.1326 9.86741 31 10.9336 31H29.0664C30.1326 31 31 30.1326 31 29.0664V18.8993C31 18.6554 30.9542 18.4221 30.8714 18.207ZM29.4714 17.0087C29.3408 16.9807 29.2053 16.9657 29.0664 16.9657H27.6698L28.5491 16.0864L29.4714 17.0087ZM27.6376 15.1749L25.8468 16.9657H24.0237L26.7261 14.2633L27.6376 15.1749ZM22.0291 10.4779C22.1548 10.3522 22.3198 10.2894 22.4848 10.2894C22.6499 10.2894 22.8149 10.3522 22.9406 10.4779L25.8146 13.3519L22.2007 16.9657H15.5412L22.0291 10.4779ZM29.7109 29.0664C29.7109 29.4218 29.4218 29.711 29.0664 29.711H10.9336C10.5782 29.711 10.2891 29.4218 10.2891 29.0664V18.8993C10.2891 18.5439 10.5782 18.2548 10.9336 18.2548H29.0664C29.4218 18.2548 29.7109 18.5439 29.7109 18.8993V29.0664Z" fill="#45C29A"/>
<path d="M11.5352 26.4707H14.5388V27.7598H11.5352V26.4707Z" fill="#45C29A"/>
<path d="M16.1768 26.4707H19.1804V27.7598H16.1768V26.4707Z" fill="#45C29A"/>
<path d="M20.8193 26.4707H23.8229V27.7598H20.8193V26.4707Z" fill="#45C29A"/>
<path d="M25.4609 26.4707H28.4646V27.7598H25.4609V26.4707Z" fill="#45C29A"/>
<path d="M14.8552 19.9736H12.6523C12.06 19.9736 11.5781 20.4555 11.5781 21.0479V22.7666C11.5781 23.3589 12.06 23.8408 12.6523 23.8408H14.8552C15.4475 23.8408 15.9294 23.3589 15.9294 22.7666V21.0479C15.9294 20.4555 15.4475 19.9736 14.8552 19.9736ZM14.6404 22.5518H12.8672V21.2627H14.6404V22.5518Z" fill="#45C29A"/>
</g>
<defs>
<clipPath id="clip0_4159_25514">
<rect width="22" height="22" fill="white" transform="translate(9 9)"/>
</clipPath>
</defs>
</svg>
