<svg width="133" height="52" viewBox="0 0 133 52" fill="none" xmlns="http://www.w3.org/2000/svg">
<rect width="133" height="52" rx="26" fill="#81E4C4"/>
<path d="M84.9971 18.3594V34H82.3008L75.2861 22.7959V34H72.5898V18.3594H75.2861L82.3223 29.585V18.3594H84.9971ZM100.681 25.75V26.6094C100.681 27.791 100.527 28.8509 100.219 29.7891C99.9108 30.7272 99.4704 31.5257 98.8975 32.1846C98.3317 32.8434 97.6514 33.3483 96.8564 33.6992C96.0615 34.043 95.1807 34.2148 94.2139 34.2148C93.2542 34.2148 92.377 34.043 91.582 33.6992C90.7943 33.3483 90.1104 32.8434 89.5303 32.1846C88.9502 31.5257 88.499 30.7272 88.1768 29.7891C87.8617 28.8509 87.7041 27.791 87.7041 26.6094V25.75C87.7041 24.5684 87.8617 23.512 88.1768 22.5811C88.4919 21.6429 88.9359 20.8444 89.5088 20.1855C90.0889 19.5195 90.7728 19.0146 91.5605 18.6709C92.3555 18.32 93.2327 18.1445 94.1924 18.1445C95.1592 18.1445 96.04 18.32 96.835 18.6709C97.6299 19.0146 98.3138 19.5195 98.8867 20.1855C99.4596 20.8444 99.9001 21.6429 100.208 22.5811C100.523 23.512 100.681 24.5684 100.681 25.75ZM97.9844 26.6094V25.7285C97.9844 24.8548 97.8984 24.085 97.7266 23.4189C97.5618 22.7458 97.3148 22.1836 96.9854 21.7324C96.6631 21.2741 96.2656 20.9303 95.793 20.7012C95.3203 20.4648 94.7868 20.3467 94.1924 20.3467C93.598 20.3467 93.068 20.4648 92.6025 20.7012C92.137 20.9303 91.7396 21.2741 91.4102 21.7324C91.0879 22.1836 90.8408 22.7458 90.6689 23.4189C90.4971 24.085 90.4111 24.8548 90.4111 25.7285V26.6094C90.4111 27.4831 90.4971 28.2565 90.6689 28.9297C90.8408 29.6029 91.0915 30.1722 91.4209 30.6377C91.7575 31.096 92.1585 31.4434 92.624 31.6797C93.0895 31.9089 93.6195 32.0234 94.2139 32.0234C94.8154 32.0234 95.349 31.9089 95.8145 31.6797C96.2799 31.4434 96.6738 31.096 96.9961 30.6377C97.3184 30.1722 97.5618 29.6029 97.7266 28.9297C97.8984 28.2565 97.9844 27.4831 97.9844 26.6094Z" fill="black"/>
<g clip-path="url(#clip0_4159_25646)">
<path d="M57.3604 15.7924H54.5884C54.1044 15.7924 53.7084 16.1884 53.7084 16.6724C51.1124 16.1004 49.6164 15.4404 47.1524 15.4404H42.4884C41.4764 15.4404 40.6404 16.2764 40.6404 17.3324C40.6404 17.7724 40.7724 18.1684 41.0364 18.4764C40.3324 18.7404 39.8484 19.4444 39.8484 20.2364C39.8484 20.6764 39.9804 21.0724 40.2444 21.3804C39.5404 21.6444 39.0564 22.3484 39.0564 23.1404C39.0564 23.5804 39.2324 24.0204 39.4964 24.3724C38.8364 24.7684 38.4404 25.4284 38.4404 26.1324C38.4404 27.1884 39.2764 28.0244 40.2884 28.0244H45.2604C44.2924 29.3444 43.7644 30.9724 43.7644 32.6004V34.4044C43.7644 35.5924 44.6884 36.5604 45.8764 36.5604C46.7124 36.5604 47.4604 36.0324 47.8124 35.2404L48.6484 33.1284C49.3084 31.5004 50.5404 30.1804 52.0804 29.4324L53.7084 28.6404V28.7284C53.7084 29.2124 54.1044 29.6084 54.5884 29.6084H57.3604C58.5924 29.6084 59.5604 28.6404 59.5604 27.4084V17.9924C59.5604 16.8044 58.5924 15.7924 57.3604 15.7924ZM51.6844 28.6844C49.9244 29.5204 48.5604 31.0164 47.8124 32.8204L46.9764 34.9324C46.8004 35.3724 46.3604 35.6804 45.8764 35.6804C45.2164 35.6804 44.6444 35.1084 44.6444 34.4044V32.6004C44.6444 31.1484 45.1284 29.6964 45.9644 28.5084L46.4484 27.8484C46.6684 27.5404 46.4484 27.1444 46.0964 27.1444H40.2884C39.7604 27.1444 39.3204 26.7044 39.3204 26.1324C39.3204 25.5604 39.7604 25.1204 40.2884 25.1204C40.3324 25.1204 42.9284 25.1204 42.8844 25.1204C43.1484 25.1204 43.3244 24.9444 43.3244 24.6804C43.3244 24.4164 43.1484 24.2404 42.8844 24.2404H40.9484C40.4204 24.2404 39.9804 23.8004 39.9804 23.2284C39.9804 22.6564 40.4204 22.2164 40.9484 22.2164H41.7404C41.9164 22.2164 43.8084 22.2164 43.7204 22.2164C43.9844 22.2164 44.1604 22.0404 44.1604 21.7764C44.1604 21.5124 43.9844 21.3364 43.7204 21.3364C43.6324 21.3364 41.6964 21.3364 41.7404 21.3364C41.2124 21.3364 40.7724 20.8964 40.7724 20.3244C40.7724 19.7524 41.2124 19.3124 41.7404 19.3124H42.5324C42.8404 19.3124 44.5564 19.3124 44.5124 19.3124C44.7764 19.3124 44.9524 19.1364 44.9524 18.8724C44.9524 18.6084 44.7764 18.4324 44.5124 18.4324C44.3804 18.4324 42.4884 18.4324 42.5324 18.4324C41.9604 18.3884 41.5204 17.9044 41.5204 17.3324C41.5204 16.7604 41.9604 16.3204 42.4884 16.3204H47.1524C49.4844 16.3204 50.7604 16.9364 53.7084 17.5964V27.6724L51.6844 28.6844ZM58.6804 27.4524C58.6804 28.2004 58.1084 28.7724 57.3604 28.7724H54.5884V27.9804V17.2884V16.6724H57.3604C58.1084 16.6724 58.6804 17.2444 58.6804 17.9924V27.4524Z" fill="black"/>
</g>
<defs>
<clipPath id="clip0_4159_25646">
<rect width="22" height="22" fill="white" transform="translate(38 15)"/>
</clipPath>
</defs>
</svg>
