<svg width="40" height="40" viewBox="0 0 40 40" fill="none" xmlns="http://www.w3.org/2000/svg">
<circle cx="20" cy="20" r="20" fill="#D5F6EB"/>
<path d="M27.7773 20.5222H25.6238C25.3307 20.5222 25.047 20.5623 24.7769 20.6359C24.2442 19.5887 23.1566 18.8691 21.9033 18.8691H18.0967C16.8434 18.8691 15.7558 19.5887 15.2231 20.6359C14.953 20.5623 14.6693 20.5222 14.3762 20.5222H12.2227C10.4457 20.5222 9 21.9679 9 23.7449V27.1875C9 28.2536 9.86741 29.1211 10.9336 29.1211H29.0664C30.1326 29.1211 31 28.2536 31 27.1875V23.7449C31 21.9679 29.5543 20.5222 27.7773 20.5222ZM14.874 22.0919V27.832H10.9336C10.5782 27.832 10.2891 27.5429 10.2891 27.1875V23.7449C10.2891 22.6788 11.1565 21.8113 12.2227 21.8113H14.3762C14.5511 21.8113 14.7206 21.8351 14.8819 21.8789C14.8772 21.9494 14.874 22.0203 14.874 22.0919ZM23.8369 27.832H16.1631V22.0918C16.1631 21.0257 17.0305 20.1582 18.0967 20.1582H21.9033C22.9695 20.1582 23.8369 21.0257 23.8369 22.0918V27.832ZM29.7109 27.1875C29.7109 27.5429 29.4218 27.832 29.0664 27.832H25.126V22.0918C25.126 22.0202 25.1228 21.9493 25.1181 21.8788C25.2794 21.8351 25.4489 21.8113 25.6238 21.8113H27.7773C28.8435 21.8113 29.7109 22.6787 29.7109 23.7449V27.1875Z" fill="#45C29A"/>
<path d="M13.2992 14.4355C11.7202 14.4355 10.4355 15.7202 10.4355 17.2992C10.4355 18.8783 11.7202 20.1629 13.2992 20.1629C14.8783 20.1629 16.1629 18.8783 16.1629 17.2992C16.1629 15.7202 14.8783 14.4355 13.2992 14.4355ZM13.2992 18.8739C12.4309 18.8739 11.7246 18.1675 11.7246 17.2992C11.7246 16.431 12.4309 15.7246 13.2992 15.7246C14.1675 15.7246 14.8738 16.431 14.8738 17.2992C14.8738 18.1675 14.1675 18.8739 13.2992 18.8739Z" fill="#45C29A"/>
<path d="M19.9997 10.8789C17.8901 10.8789 16.1738 12.5952 16.1738 14.7048C16.1738 16.8144 17.8901 18.5306 19.9997 18.5306C22.1093 18.5306 23.8255 16.8144 23.8255 14.7048C23.8255 12.5952 22.1093 10.8789 19.9997 10.8789ZM19.9997 17.2415C18.6009 17.2415 17.4629 16.1036 17.4629 14.7048C17.4629 13.306 18.6009 12.168 19.9997 12.168C21.3985 12.168 22.5365 13.306 22.5365 14.7048C22.5365 16.1036 21.3985 17.2415 19.9997 17.2415Z" fill="#45C29A"/>
<path d="M26.7006 14.4355C25.1216 14.4355 23.8369 15.7202 23.8369 17.2992C23.837 18.8783 25.1216 20.1629 26.7006 20.1629C28.2797 20.1629 29.5643 18.8783 29.5643 17.2992C29.5643 15.7202 28.2797 14.4355 26.7006 14.4355ZM26.7006 18.8739C25.8324 18.8739 25.126 18.1675 25.126 17.2992C25.126 16.431 25.8324 15.7246 26.7006 15.7246C27.5689 15.7246 28.2752 16.431 28.2752 17.2992C28.2752 18.1675 27.5689 18.8739 26.7006 18.8739Z" fill="#45C29A"/>
</svg>
