<svg width="40" height="40" viewBox="0 0 40 40" fill="none" xmlns="http://www.w3.org/2000/svg">
<circle cx="20" cy="20" r="20" fill="#D5F6EB"/>
<path d="M20.917 13.9627L21.1856 14.2313C21.5431 14.5888 22.1242 14.5888 22.4817 14.2313C22.8392 13.8738 22.8392 13.2927 22.4817 12.9352L20.6484 11.1018C20.2909 10.7434 19.7097 10.7434 19.3522 11.1018L17.5189 12.9352C17.1614 13.2927 17.1614 13.8738 17.5189 14.2313C17.8764 14.5888 18.4576 14.5888 18.8151 14.2313L19.0837 13.9627V15.4166C19.0837 15.9226 18.673 16.3332 18.167 16.3332H11.7503C11.2443 16.3332 10.8337 16.7439 10.8337 17.2499V28.2499C10.8337 28.7559 11.2443 29.1666 11.7503 29.1666H28.2503C28.7563 29.1666 29.167 28.7559 29.167 28.2499V17.2499C29.167 16.7439 28.7563 16.3332 28.2503 16.3332H23.667C23.161 16.3332 22.7503 16.7439 22.7503 17.2499C22.7503 17.7559 23.161 18.1666 23.667 18.1666H27.3337V27.3332H12.667V18.1666H18.167C19.6859 18.1666 20.917 16.9355 20.917 15.4166V13.9627ZM20.0003 19.9999C21.5183 19.9999 22.7503 21.2319 22.7503 22.7499C22.7503 24.2679 21.5183 25.4999 20.0003 25.4999C18.4823 25.4999 17.2503 24.2679 17.2503 22.7499C17.2503 21.2319 18.4823 19.9999 20.0003 19.9999ZM20.0003 21.8332C19.4943 21.8332 19.0837 22.2439 19.0837 22.7499C19.0837 23.2559 19.4943 23.6666 20.0003 23.6666C20.5063 23.6666 20.917 23.2559 20.917 22.7499C20.917 22.2439 20.5063 21.8332 20.0003 21.8332Z" fill="#45C29A"/>
</svg>
