<svg width="20" height="20" viewBox="0 0 20 20" fill="none" xmlns="http://www.w3.org/2000/svg">
<path d="M18.2121 8.06653H13.5135C15.343 5.53015 14.8025 2.99376 14.8857 2.079V2.03742C14.8857 0.914761 14.0125 0 12.8898 0C11.5177 0 11.0603 1.16424 10.6029 2.37006C10.0624 3.78378 9.35551 5.57173 7.02703 6.69439L5.53015 7.48441V7.40125C5.53015 6.94387 5.15593 6.56965 4.69854 6.56965H2.079C0.914761 6.56965 0 7.48441 0 8.64865V17.5884C0 18.7526 0.914761 19.6674 2.079 19.6674H4.69854C5.15593 19.6674 5.53015 19.2931 5.53015 18.8358V18.7942C6.23701 18.9605 6.81913 19.1268 7.35967 19.2516C8.93971 19.6674 10.1039 20 11.7672 20H16.1746C17.131 20 17.921 19.21 17.921 18.2121C17.921 17.7963 17.7963 17.422 17.5468 17.131C18.2121 16.8815 18.6694 16.2162 18.6694 15.4678C18.6694 15.052 18.5447 14.6778 18.2952 14.3867C18.9605 14.1372 19.4179 13.4719 19.4179 12.7235C19.4179 12.2661 19.2516 11.8919 19.0021 11.5593C19.5842 11.2682 20 10.6445 20 9.93763C19.9584 8.85655 19.1684 8.06653 18.2121 8.06653ZM2.079 18.7942C1.37214 18.7942 0.831601 18.2536 0.831601 17.5468V8.60707C0.831601 7.90021 1.37214 7.35967 2.079 7.35967H4.69854V8.10811V18.2121V18.7526H2.079V18.7942ZM18.2121 10.8108C18.1705 10.8108 15.7173 10.8108 15.7588 10.8108C15.5094 10.8108 15.343 10.9771 15.343 11.2266C15.343 11.4761 15.5094 11.6424 15.7588 11.6424H17.6299C18.1289 11.6424 18.5447 12.0582 18.5447 12.5988C18.5447 13.1393 18.1289 13.5551 17.6299 13.5551C17.3389 13.5551 14.9272 13.5551 15.0104 13.5551C14.7609 13.5551 14.5946 13.7214 14.5946 13.9709C14.5946 14.2204 14.7609 14.3867 15.0104 14.3867C15.1351 14.3867 16.9231 14.3867 16.8815 14.3867C17.3805 14.3867 17.7963 14.8025 17.7963 15.343C17.7963 15.8836 17.3805 16.2994 16.8815 16.2994C16.5904 16.2994 14.1788 16.2994 14.262 16.2994C14.0125 16.2994 13.8462 16.4657 13.8462 16.7152C13.8462 17.422 14.8857 17.0478 16.1331 17.131C16.632 17.131 17.0478 17.5468 17.0478 18.0873C17.0478 18.6279 16.632 19.1268 16.1331 19.1268H11.7256C10.1455 19.1268 9.10603 18.8358 7.52599 18.42C6.94387 18.2536 6.27859 18.0873 5.48857 17.8794V8.39917L7.40125 7.48441C10.0208 6.19543 10.8108 4.158 11.3929 2.7027C11.8919 1.4553 12.1414 0.873181 12.8898 0.873181C13.5135 0.873181 14.0125 1.41372 14.0541 2.03742C13.9709 3.07692 14.4699 5.32225 12.8067 7.60915L12.3493 8.23285C12.1414 8.48233 12.3493 8.89813 12.6819 8.89813H18.2121C18.711 8.89813 19.1268 9.31393 19.1268 9.85447C19.1268 10.395 18.711 10.8108 18.2121 10.8108Z" fill="black"/>
</svg>
