<svg width="22" height="22" viewBox="0 0 22 22" fill="none" xmlns="http://www.w3.org/2000/svg">
<path d="M19.3604 0.79243H16.5884C16.1044 0.79243 15.7084 1.18843 15.7084 1.67243C13.1124 1.10043 11.6164 0.44043 9.15243 0.44043H4.48843C3.47643 0.44043 2.64043 1.27643 2.64043 2.33243C2.64043 2.77243 2.77243 3.16843 3.03643 3.47643C2.33243 3.74043 1.84843 4.44443 1.84843 5.23643C1.84843 5.67643 1.98043 6.07243 2.24443 6.38043C1.54043 6.64443 1.05643 7.34843 1.05643 8.14043C1.05643 8.58043 1.23243 9.02043 1.49643 9.37243C0.83643 9.76843 0.44043 10.4284 0.44043 11.1324C0.44043 12.1884 1.27643 13.0244 2.28843 13.0244H7.26043C6.29243 14.3444 5.76443 15.9724 5.76443 17.6004V19.4044C5.76443 20.5924 6.68843 21.5604 7.87643 21.5604C8.71243 21.5604 9.46043 21.0324 9.81243 20.2404L10.6484 18.1284C11.3084 16.5004 12.5404 15.1804 14.0804 14.4324L15.7084 13.6404V13.7284C15.7084 14.2124 16.1044 14.6084 16.5884 14.6084H19.3604C20.5924 14.6084 21.5604 13.6404 21.5604 12.4084V2.99243C21.5604 1.80443 20.5924 0.79243 19.3604 0.79243ZM13.6844 13.6844C11.9244 14.5204 10.5604 16.0164 9.81243 17.8204L8.97643 19.9324C8.80043 20.3724 8.36043 20.6804 7.87643 20.6804C7.21643 20.6804 6.64443 20.1084 6.64443 19.4044V17.6004C6.64443 16.1484 7.12843 14.6964 7.96443 13.5084L8.44843 12.8484C8.66843 12.5404 8.44843 12.1444 8.09643 12.1444H2.28843C1.76043 12.1444 1.32043 11.7044 1.32043 11.1324C1.32043 10.5604 1.76043 10.1204 2.28843 10.1204C2.33243 10.1204 4.92843 10.1204 4.88443 10.1204C5.14843 10.1204 5.32443 9.94443 5.32443 9.68043C5.32443 9.41643 5.14843 9.24043 4.88443 9.24043H2.94843C2.42043 9.24043 1.98043 8.80043 1.98043 8.22843C1.98043 7.65643 2.42043 7.21643 2.94843 7.21643H3.74043C3.91643 7.21643 5.80843 7.21643 5.72043 7.21643C5.98443 7.21643 6.16043 7.04043 6.16043 6.77643C6.16043 6.51243 5.98443 6.33643 5.72043 6.33643C5.63243 6.33643 3.69643 6.33643 3.74043 6.33643C3.21243 6.33643 2.77243 5.89643 2.77243 5.32443C2.77243 4.75243 3.21243 4.31243 3.74043 4.31243H4.53243C4.84043 4.31243 6.55643 4.31243 6.51243 4.31243C6.77643 4.31243 6.95243 4.13643 6.95243 3.87243C6.95243 3.60843 6.77643 3.43243 6.51243 3.43243C6.38043 3.43243 4.48843 3.43243 4.53243 3.43243C3.96043 3.38843 3.52043 2.90443 3.52043 2.33243C3.52043 1.76043 3.96043 1.32043 4.48843 1.32043H9.15243C11.4844 1.32043 12.7604 1.93643 15.7084 2.59643V12.6724L13.6844 13.6844ZM20.6804 12.4524C20.6804 13.2004 20.1084 13.7724 19.3604 13.7724H16.5884V12.9804V2.28843V1.67243H19.3604C20.1084 1.67243 20.6804 2.24443 20.6804 2.99243V12.4524Z" fill="black"/>
</svg>
