<svg width="16" height="13" viewBox="0 0 16 13" fill="none" xmlns="http://www.w3.org/2000/svg">
<path d="M15.5 1.59159C14.9363 1.84975 14.3401 2.02041 13.73 2.09826C14.3736 1.69238 14.856 1.05387 15.0875 0.301172C14.4827 0.681222 13.8206 0.94899 13.13 1.09284C12.6684 0.564458 12.0537 0.21274 11.3824 0.0928459C10.711 -0.027048 10.0209 0.0916639 9.42034 0.430363C8.81978 0.769063 8.3427 1.30859 8.06393 1.96433C7.78516 2.62008 7.72047 3.35494 7.88 4.05367C6.65707 3.98838 5.46083 3.65226 4.36899 3.06715C3.27715 2.48203 2.31413 1.66101 1.5425 0.657422C1.27185 1.15631 1.12964 1.72128 1.13 2.29617C1.12904 2.83006 1.25316 3.35591 1.49132 3.82691C1.72947 4.29791 2.07426 4.69944 2.495 4.99576C2.00598 4.98171 1.52741 4.8432 1.1 4.59201V4.63159C1.10367 5.37963 1.352 6.10337 1.80299 6.68039C2.25398 7.25742 2.87994 7.65231 3.575 7.79826C3.30744 7.8842 3.02966 7.92952 2.75 7.93284C2.55642 7.93045 2.36332 7.91192 2.1725 7.87742C2.37043 8.5209 2.75347 9.08325 3.26831 9.48622C3.78315 9.88918 4.40418 10.1127 5.045 10.1258C3.9629 11.0245 2.62691 11.515 1.25 11.5191C0.999301 11.52 0.748802 11.5041 0.5 11.4716C1.90582 12.4297 3.54411 12.9383 5.2175 12.9362C6.37227 12.9488 7.51785 12.7185 8.58734 12.2586C9.65682 11.7987 10.6288 11.1184 11.4464 10.2576C12.264 9.39672 12.911 8.37252 13.3494 7.24481C13.7879 6.11709 14.009 4.90846 14 3.6895C14 3.55492 14 3.41242 14 3.26992C14.5885 2.80665 15.0961 2.23872 15.5 1.59159Z" fill="black"/>
</svg>
