<svg width="133" height="52" viewBox="0 0 133 52" fill="none" xmlns="http://www.w3.org/2000/svg">
<rect width="133" height="52" rx="26" fill="#81E4C4"/>
<path d="M64.083 18.3594L67.7139 25.8252L71.3447 18.3594H74.3311L69.0674 28.2422V34H66.3496V28.2422L61.0859 18.3594H64.083ZM86.2764 31.8623V34H77.9727V31.8623H86.2764ZM78.7354 18.3594V34H76.0391V18.3594H78.7354ZM85.1914 24.8906V26.9961H77.9727V24.8906H85.1914ZM86.2227 18.3594V20.5078H77.9727V18.3594H86.2227ZM96.707 29.9717C96.707 29.6494 96.6569 29.363 96.5566 29.1123C96.4635 28.8617 96.2952 28.6325 96.0518 28.4248C95.8083 28.2171 95.4645 28.0166 95.0205 27.8232C94.5837 27.6227 94.0251 27.4186 93.3447 27.2109C92.5999 26.9818 91.9124 26.7275 91.2822 26.4482C90.6592 26.1618 90.1149 25.8324 89.6494 25.46C89.1839 25.0804 88.8223 24.6471 88.5645 24.1602C88.3066 23.666 88.1777 23.0967 88.1777 22.4521C88.1777 21.8148 88.3102 21.2347 88.5752 20.7119C88.8473 20.1891 89.2305 19.738 89.7246 19.3584C90.2259 18.9717 90.8167 18.6745 91.4971 18.4668C92.1774 18.252 92.9294 18.1445 93.7529 18.1445C94.9131 18.1445 95.9121 18.3594 96.75 18.7891C97.5951 19.2188 98.2432 19.7952 98.6943 20.5186C99.1527 21.2419 99.3818 22.0404 99.3818 22.9141H96.707C96.707 22.3984 96.596 21.9437 96.374 21.5498C96.1592 21.1488 95.8298 20.8337 95.3857 20.6045C94.9489 20.3753 94.3939 20.2607 93.7207 20.2607C93.0833 20.2607 92.5534 20.3574 92.1309 20.5508C91.7083 20.7441 91.3932 21.0055 91.1855 21.335C90.9779 21.6644 90.874 22.0368 90.874 22.4521C90.874 22.7458 90.9421 23.0143 91.0781 23.2578C91.2142 23.4941 91.4219 23.7161 91.7012 23.9238C91.9805 24.1243 92.3314 24.3141 92.7539 24.4932C93.1764 24.6722 93.6742 24.8441 94.2471 25.0088C95.1136 25.2666 95.8691 25.5531 96.5137 25.8682C97.1582 26.1761 97.6953 26.527 98.125 26.9209C98.5547 27.3148 98.877 27.7624 99.0918 28.2637C99.3066 28.7578 99.4141 29.32 99.4141 29.9502C99.4141 30.609 99.2816 31.2035 99.0166 31.7334C98.7516 32.2562 98.3721 32.7038 97.8779 33.0762C97.391 33.4414 96.8037 33.7243 96.1162 33.9248C95.4359 34.1182 94.6768 34.2148 93.8389 34.2148C93.0869 34.2148 92.3457 34.1146 91.6152 33.9141C90.8919 33.7135 90.2331 33.4092 89.6387 33.001C89.0443 32.5856 88.5716 32.07 88.2207 31.4541C87.8698 30.8311 87.6943 30.1042 87.6943 29.2734H90.3906C90.3906 29.7819 90.4766 30.2152 90.6484 30.5732C90.8275 30.9313 91.0745 31.2249 91.3896 31.4541C91.7048 31.6761 92.07 31.8408 92.4854 31.9482C92.9079 32.0557 93.359 32.1094 93.8389 32.1094C94.4691 32.1094 94.9954 32.0199 95.418 31.8408C95.8477 31.6618 96.1699 31.4111 96.3848 31.0889C96.5996 30.7666 96.707 30.3942 96.707 29.9717Z" fill="black"/>
<path d="M47.2121 24.0665H42.5135C44.343 21.5301 43.8025 18.9938 43.8857 18.079V18.0374C43.8857 16.9148 43.0125 16 41.8898 16C40.5177 16 40.0603 17.1642 39.6029 18.3701C39.0624 19.7838 38.3555 21.5717 36.027 22.6944L34.5301 23.4844V23.4012C34.5301 22.9439 34.1559 22.5696 33.6985 22.5696H31.079C29.9148 22.5696 29 23.4844 29 24.6486V33.5884C29 34.7526 29.9148 35.6674 31.079 35.6674H33.6985C34.1559 35.6674 34.5301 35.2931 34.5301 34.8358V34.7942C35.237 34.9605 35.8191 35.1268 36.3597 35.2516C37.9397 35.6674 39.1039 36 40.7672 36H45.1746C46.131 36 46.921 35.21 46.921 34.2121C46.921 33.7963 46.7963 33.422 46.5468 33.131C47.2121 32.8815 47.6694 32.2162 47.6694 31.4678C47.6694 31.052 47.5447 30.6778 47.2952 30.3867C47.9605 30.1372 48.4179 29.4719 48.4179 28.7235C48.4179 28.2661 48.2516 27.8919 48.0021 27.5593C48.5842 27.2682 49 26.6445 49 25.9376C48.9584 24.8565 48.1684 24.0665 47.2121 24.0665ZM31.079 34.7942C30.3721 34.7942 29.8316 34.2536 29.8316 33.5468V24.6071C29.8316 23.9002 30.3721 23.3597 31.079 23.3597H33.6985V24.1081V34.2121V34.7526H31.079V34.7942ZM47.2121 26.8108C47.1705 26.8108 44.7173 26.8108 44.7588 26.8108C44.5094 26.8108 44.343 26.9771 44.343 27.2266C44.343 27.4761 44.5094 27.6424 44.7588 27.6424H46.6299C47.1289 27.6424 47.5447 28.0582 47.5447 28.5988C47.5447 29.1393 47.1289 29.5551 46.6299 29.5551C46.3389 29.5551 43.9272 29.5551 44.0104 29.5551C43.7609 29.5551 43.5946 29.7214 43.5946 29.9709C43.5946 30.2204 43.7609 30.3867 44.0104 30.3867C44.1351 30.3867 45.9231 30.3867 45.8815 30.3867C46.3805 30.3867 46.7963 30.8025 46.7963 31.343C46.7963 31.8836 46.3805 32.2994 45.8815 32.2994C45.5904 32.2994 43.1788 32.2994 43.262 32.2994C43.0125 32.2994 42.8462 32.4657 42.8462 32.7152C42.8462 33.422 43.8857 33.0478 45.1331 33.131C45.632 33.131 46.0478 33.5468 46.0478 34.0873C46.0478 34.6279 45.632 35.1268 45.1331 35.1268H40.7256C39.1455 35.1268 38.106 34.8358 36.526 34.42C35.9439 34.2536 35.2786 34.0873 34.4886 33.8794V24.3992L36.4012 23.4844C39.0208 22.1954 39.8108 20.158 40.3929 18.7027C40.8919 17.4553 41.1414 16.8732 41.8898 16.8732C42.5135 16.8732 43.0125 17.4137 43.0541 18.0374C42.9709 19.0769 43.4699 21.3222 41.8067 23.6091L41.3493 24.2328C41.1414 24.4823 41.3493 24.8981 41.6819 24.8981H47.2121C47.711 24.8981 48.1268 25.3139 48.1268 25.8545C48.1268 26.395 47.711 26.8108 47.2121 26.8108Z" fill="black"/>
</svg>
